<?xml version="1.0" encoding="UTF-8" standalone="no"?>
<svg xmlns:rdf="http://www.w3.org/1999/02/22-rdf-syntax-ns#" xmlns="http://www.w3.org/2000/svg" height="613" width="491" version="1.0" xmlns:cc="http://creativecommons.org/ns#" xmlns:dc="http://purl.org/dc/elements/1.1/">
 <defs>
  <marker id="a" refY="0" refX="0" orient="auto" overflow="visible">
   <path stroke-linejoin="round" d="m8.7186 4.0337l-10.926-4.0177 10.926-4.0177c-1.7455 2.3721-1.7355 5.6174 0 8.0354z" fill-rule="evenodd" transform="matrix(-1.1,0,0,-1.1,5.5,0)" stroke-width=".625"/>
  </marker>
 </defs>
 <g transform="translate(-19 -48.094)">
  <path marker-end="url(#a)" d="m139.55 200.1v19.43" stroke="#000" stroke-width="1px" fill="none"/>
  <path marker-end="url(#a)" d="m232.86 325.77h35.78" stroke="#000" stroke-width="1px" fill="none"/>
  <g style="writing-mode:lr" transform="matrix(.9 0 0 .9 15.092 50.188)" font-size="12px" font-family="FreeSans" line-height="100%">
   <rect height="14.173" width="24.803" y="298.11" x="247.44" fill="#fff"/>
   <text style="writing-mode:lr" line-height="100%" font-size="12px" y="310.1712" x="250.4505" font-family="FreeSans" xml:space="preserve" fill="#000000"><tspan y="310.1712" x="250.4505">Yes</tspan></text>
  </g>
  <rect height="45.864" width="205.37" stroke="#f00" y="105.89" x="278.79" stroke-width="2.0847" fill="none"/>
  <path marker-end="url(#a)" d="m136.54 419.28v20.06" stroke="#000" stroke-width="1px" fill="none"/>
  <g style="writing-mode:lr" transform="matrix(.9 0 0 .9 26.342 35.338)" font-size="12px" font-family="FreeSans" line-height="100%">
   <rect height="14.173" width="24.803" y="184.88" x="114.16" fill="#fff"/>
   <text style="writing-mode:lr" line-height="100%" font-size="12px" y="196.2341" x="115.76096" font-family="FreeSans" xml:space="preserve" fill="#000000"><tspan y="196.2341" x="115.76096">Yes</tspan></text>
  </g>
  <g style="writing-mode:lr" transform="matrix(.9 0 0 .9 12.341 53.157)" font-size="12px" font-family="FreeSans" line-height="100%">
   <rect height="13.673" width="15.933" y="408.99" x="130.03" fill="#fff"/>
   <text style="writing-mode:lr" xml:space="preserve" font-size="12px" y="419.62" x="130.03346" font-family="FreeSans" line-height="100%" fill="#000000"><tspan x="130.03346" y="419.62">No</tspan></text>
  </g>
  <path marker-end="url(#a)" d="m209.11 128.83h59.39" stroke="#000" stroke-width="1px" fill="none"/>
  <g style="writing-mode:lr" transform="matrix(.9 0 0 .9 21.25 34.065)" font-size="12px" font-family="FreeSans" line-height="100%">
   <rect height="13.673" width="15.933" y="98.453" x="233.77" fill="#fff"/>
   <text style="writing-mode:lr" xml:space="preserve" font-size="12px" y="109.08331" x="233.76538" font-family="FreeSans" line-height="100%" fill="#000000"><tspan x="233.76538" y="109.08331">No</tspan></text>
  </g>
  <path marker-end="url(#a)" d="m209.97 517.66h59.11" stroke="#000" stroke-width="1px" fill="none"/>
  <g style="writing-mode:lr" transform="matrix(.9 0 0 .9 20.492 65.938)" font-size="12px" font-family="FreeSans" line-height="100%">
   <rect height="14.173" width="24.803" y="492.83" x="229.47" fill="#fff"/>
   <text style="writing-mode:lr" line-height="100%" font-size="12px" y="504.89001" x="232.48424" font-family="FreeSans" xml:space="preserve" fill="#000000"><tspan y="504.89001" x="232.48424">Yes</tspan></text>
  </g>
  <path marker-end="url(#a)" d="m392.36 152.6v77.13h-242.72" stroke="#000" stroke-width="1px" fill="none"/>
  <g font-family="FreeSans">
   <g style="writing-mode:lr;text-anchor:middle;text-align:center" transform="matrix(.9 0 0 .9 26.342 35.338)" font-size="12px" line-height="100%">
    <path d="m146.28 391.76-52.606-50.606 50.606-52.606 52.606 50.606z" transform="matrix(1.5144 0 0 1.5144 -95.669 -410.3)" stroke="#000" stroke-width="2.1689" fill="none"/>
    <text style="writing-mode:lr;text-anchor:middle;text-align:center" line-height="100%" font-size="12px" y="91.122337" x="124.30521" font-family="FreeSans" xml:space="preserve" fill="#000000"><tspan style="writing-mode:lr;text-anchor:middle;text-align:center" font-size="12px" line-height="100%" y="91.122337" x="124.30521" font-family="FreeSans"><tspan font-weight="bold">Origin</tspan></tspan><tspan y="103.12234" x="124.30521">Performance and</tspan><tspan y="115.12234" x="124.30521">minimas suitable</tspan><tspan y="127.12234" x="124.30521"> for S/E return?</tspan></text>
   </g>
   <g style="writing-mode:lr;text-anchor:middle;text-align:center" transform="matrix(.9 0 0 .9 26.342 31.308)" font-size="12px" line-height="100%">
    <path fill="none" transform="matrix(1.0854 0 0 1.0854 -292.02 -112.61)" stroke="#000" stroke-width="2.5591" d="m381.68 500.67-95.737-97.737 97.737-95.737 95.737 97.737z"/>
    <text style="writing-mode:lr-tb;text-anchor:middle;text-align:center" line-height="100%" font-size="12px" y="286.86938" x="123.63856" font-family="FreeSans" xml:space="preserve" fill="#000000"><tspan style="writing-mode:lr-tb;text-anchor:middle;text-align:center" font-weight="bold" font-size="12px" line-height="100%" y="286.86938" x="123.63856" font-family="FreeSans">Destination</tspan><tspan y="298.86938" x="123.63856">Flight &lt;6 hours and</tspan><tspan y="310.86938" x="123.63856">2 independent runways and</tspan><tspan y="322.86938" x="123.63856"/><tspan y="334.86938" x="123.63856">Minima @ ETA±1hr:</tspan><tspan y="346.86938" x="123.63856">  Cloudbase &gt; Circling +500&apos;</tspan><tspan y="358.86938" x="123.63856">  Cloudbase &gt; 2000&apos;</tspan><tspan y="370.86938" x="123.63856">  Visibility &gt; 5km</tspan></text>
   </g>
   <text xml:space="preserve" font-size="10.8px" y="120.82076" x="310.06934" line-height="100%" fill="#000000"><tspan x="310.06934" y="120.82076">Take-off alternate required:</tspan><tspan x="310.06934" y="131.62076"> ∙ Within 320nm of origin</tspan><tspan x="310.06934" y="142.42076"> ∙ &gt;S/E minima @ ETA±1hr </tspan></text>
   <g style="writing-mode:lr" transform="matrix(.9 0 0 .9 26.342 52.107)" font-size="12px" line-height="100%">
    <rect height="50.201" width="228.03" stroke="#f00" y="278.97" x="280.58" stroke-width="2.4799" fill="none"/>
    <text style="writing-mode:lr-tb" line-height="100%" font-size="12px" y="299.59799" x="298.99878" font-family="FreeSans" xml:space="preserve" fill="#000000"><tspan y="299.59799" x="298.99878">Destination alternate not required.</tspan><tspan y="311.59799" x="298.99878">  ∙ Add 15 minutes holding fuel.</tspan></text>
   </g>
  </g>
  <path stroke-width="2.4341" stroke="#000" fill="none" d="m140.48 590.03-72.846-68.326 68.326-72.846 72.846 68.326z"/>
  <g font-family="FreeSans">
   <text style="text-anchor:middle;text-align:center" xml:space="preserve" font-size="10.8px" line-height="100%" y="506.03549" x="137.75252" fill="#000000"><tspan style="text-anchor:middle;text-align:center" font-weight="bold" font-size="10.8px" line-height="100%" y="506.03549" x="137.75252" font-family="FreeSans">Destination</tspan><tspan x="139.10252" y="516.83551">Minima @ ETA±1hr </tspan><tspan x="137.75252" y="527.6355">suitable for expected</tspan><tspan x="139.10252" y="538.43549">approach? </tspan></text>
   <g style="writing-mode:lr" transform="matrix(.9 0 0 .9 26.342 67.649)" font-size="12px" line-height="100%">
    <rect height="85.969" width="227.77" stroke="#f00" y="457.03" x="280.71" stroke-width="2.7708" fill="none"/>
    <text style="writing-mode:lr-tb" line-height="100%" font-size="12px" y="473.12106" x="294.04895" font-family="FreeSans" xml:space="preserve" fill="#000000"><tspan y="473.12106" x="294.04895">Single destination alternate required:</tspan><tspan y="485.12106" x="294.04895">  ∙ Minima @ ETA±1hr:</tspan><tspan y="497.12106" x="294.04895">      Cat II/III ⇒ Cat I </tspan><tspan y="509.12106" x="294.04895">      Cat I ⇒ <tspan style="writing-mode:lr-tb" font-size="12px" line-height="100%" font-family="FreeSans"/>Non-precision  </tspan><tspan y="521.12109" x="294.04895">      Non-precision ⇒ add 200ft/1000m</tspan><tspan y="533.12109" x="294.04895">      Circling ⇒ circling minima</tspan></text>
   </g>
   <g style="writing-mode:lr" transform="matrix(.9 0 0 .9 26.342 74.938)" font-size="12px" line-height="100%">
    <rect height="85.969" width="227.77" stroke="#f00" y="550.34" x="280.71" stroke-width="2.7708" fill="none"/>
    <text style="writing-mode:lr-tb" line-height="100%" font-size="12px" y="566.35901" x="294.04895" font-family="FreeSans" xml:space="preserve" fill="#000000"><tspan y="566.35901" x="294.04895">Two destination alternates required:</tspan><tspan y="578.35901" x="294.04895">  ∙ Minima @ ETA±hr:</tspan><tspan y="590.35901" x="294.04895">      Cat II/III ⇒ Cat I</tspan><tspan y="602.35901" x="294.04895">      Cat I ⇒ Non-precision</tspan><tspan y="614.35901" x="294.04895">      Non-precision ⇒ add 200ft/1000m</tspan><tspan y="626.35901" x="294.04895">      Circling ⇒ circling minima</tspan></text>
   </g>
  </g>
  <path marker-end="url(#a)" d="m140.19 589.58l0.45 19.35 127.8 0.45" stroke="#000" stroke-width="1px" fill="none"/>
  <g style="writing-mode:lr" transform="matrix(.9 0 0 .9 -52.408 63.238)" font-size="12px" font-family="FreeSans" line-height="100%">
   <rect height="13.673" width="15.933" y="587.53" x="206.21" fill="#fff"/>
   <text style="writing-mode:lr" xml:space="preserve" font-size="12px" y="598.15552" x="206.21393" font-family="FreeSans" line-height="100%" fill="#000000"><tspan x="206.21393" y="598.15552">No</tspan></text>
  </g>
  <rect height="613" width="491" y="48.094" x="19" fill="none"/>
 </g>
</svg>
